<svg width="234" height="91" viewBox="0 0 234 91" fill="none" xmlns="http://www.w3.org/2000/svg">
<path d="M96.3462 13.3471L95.8385 12.4855L96.3462 13.3471ZM87.0605 89.7447L86.8774 90.7278L87.0605 89.7447ZM2.77478 71.6099L11.0944 63.6026L1.5974e-05 60.4012L2.77478 71.6099ZM233.543 77.9146C219.925 61.5893 196.739 38.7219 171.405 23.1731C146.138 7.66516 118.356 -0.783689 95.8385 12.4855L96.8539 14.2086C118.337 1.54897 145.197 9.43429 170.359 24.8777C195.454 40.2802 218.482 62.9813 232.007 79.1957L233.543 77.9146ZM95.8385 12.4855C68.1372 28.8097 59.9508 47.211 61.8131 62.2817C63.6608 77.2347 75.4049 88.5908 86.8774 90.7278L87.2436 88.7616C76.6552 86.7893 65.5422 76.1521 63.798 62.0364C62.0683 48.0385 69.5552 30.2955 96.8539 14.2086L95.8385 12.4855ZM86.8774 90.7278C95.2271 92.2831 102.755 87.0603 108.312 78.882C113.892 70.6688 117.689 59.2218 118.593 47.6204C119.497 36.0237 117.52 24.1378 111.392 15.1183C105.228 6.04633 94.9483 0 79.5605 0V2C94.3512 2 103.982 7.77022 109.738 16.2422C115.529 24.7667 117.481 36.1521 116.599 47.465C115.718 58.7733 112.014 69.8742 106.657 77.758C101.277 85.6768 94.4296 90.1001 87.2436 88.7616L86.8774 90.7278ZM79.5605 0C35.9806 0 12.787 37.7363 4.32419 62.6373L6.21782 63.2808C14.6091 38.5902 37.3343 2 79.5605 2V0Z" fill="#25A4AD"/>
</svg>
